<svg width="87" height="87" viewBox="0 0 87 87" fill="none" xmlns="http://www.w3.org/2000/svg">
<g id="Group">
<path id="Vector" fill-rule="evenodd" clip-rule="evenodd" d="M43.5 0C19.488 0 0 19.488 0 43.5C0 67.512 19.488 87 43.5 87C67.512 87 87 67.512 87 43.5C87 19.488 67.512 0 43.5 0ZM64.815 58.6815L58.725 64.7715C57.855 65.6415 56.5065 65.6415 55.6365 64.7715L40.803 49.938C35.496 51.8085 29.319 50.6775 25.056 46.4145C20.2275 41.586 19.401 34.278 22.4895 28.5795L32.712 38.802L38.8455 32.6685L28.623 22.4895C34.365 19.401 41.6295 20.2275 46.458 25.056C50.721 29.319 51.852 35.496 49.9815 40.803L64.815 55.6365C65.6415 56.463 65.6415 57.855 64.815 58.6815Z" fill="#21E6C1"/>
</g>
</svg>
