<?xml version="1.0" encoding="utf-8"?>
<!-- Generator: Adobe Illustrator 24.2.3, SVG Export Plug-In . SVG Version: 6.00 Build 0)  -->
<svg version="1.1" id="Layer_1" xmlns="http://www.w3.org/2000/svg" xmlns:xlink="http://www.w3.org/1999/xlink" x="0px" y="0px"
	 viewBox="0 0 87 87" style="enable-background:new 0 0 87 87;" xml:space="preserve">
<style type="text/css">
	.st0{fill-rule:evenodd;clip-rule:evenodd;fill:#21E6C1;}
</style>
<path class="st0" d="M43.5,0C19.5,0,0,19.5,0,43.5S19.5,87,43.5,87S87,67.5,87,43.5S67.5,0,43.5,0z M64.8,58.7l-6.1,6.1
	c-0.9,0.9-2.2,0.9-3.1,0L40.8,49.9c-5.3,1.9-11.5,0.7-15.7-3.5c-4.8-4.8-5.7-12.1-2.6-17.8l10.2,10.2l6.1-6.1L28.6,22.5
	c5.7-3.1,13-2.3,17.8,2.6c4.3,4.3,5.4,10.4,3.5,15.7l14.8,14.8C65.6,56.5,65.6,57.9,64.8,58.7z"/>
</svg>
